<mxfile host="app.diagrams.net" agent="Mozilla/5.0 (Macintosh; Intel Mac OS X 10_15_7) AppleWebKit/605.1.15 (KHTML, like Gecko) Version/17.6 Safari/605.1.15" version="25.0.1">
  <diagram name="Page-1" id="gcOh2L13ghurHqlArtQZ">
    <mxGraphModel dx="816" dy="480" grid="1" gridSize="10" guides="1" tooltips="1" connect="1" arrows="1" fold="1" page="1" pageScale="1" pageWidth="827" pageHeight="1169" background="#ffffff" math="0" shadow="0">
      <root>
        <mxCell id="0" />
        <mxCell id="1" parent="0" />
        <mxCell id="uvgIFms-rv46Gu-G6dfy-30" style="edgeStyle=orthogonalEdgeStyle;rounded=0;orthogonalLoop=1;jettySize=auto;html=1;exitX=0.5;exitY=1;exitDx=0;exitDy=0;entryX=0.5;entryY=0;entryDx=0;entryDy=0;" edge="1" parent="1" source="VRNMHvbQ2h5_KSJw3uvR-1" target="uvgIFms-rv46Gu-G6dfy-21">
          <mxGeometry relative="1" as="geometry" />
        </mxCell>
        <mxCell id="VRNMHvbQ2h5_KSJw3uvR-1" value="" style="ellipse;whiteSpace=wrap;html=1;aspect=fixed;" parent="1" vertex="1">
          <mxGeometry x="280" y="200" width="40" height="40" as="geometry" />
        </mxCell>
        <mxCell id="uvgIFms-rv46Gu-G6dfy-79" style="edgeStyle=orthogonalEdgeStyle;rounded=0;orthogonalLoop=1;jettySize=auto;html=1;exitX=0.5;exitY=1;exitDx=0;exitDy=0;entryX=0.5;entryY=0;entryDx=0;entryDy=0;" edge="1" parent="1" source="uvgIFms-rv46Gu-G6dfy-21" target="uvgIFms-rv46Gu-G6dfy-74">
          <mxGeometry relative="1" as="geometry" />
        </mxCell>
        <mxCell id="uvgIFms-rv46Gu-G6dfy-21" value="Receive an integer" style="rounded=1;whiteSpace=wrap;html=1;" vertex="1" parent="1">
          <mxGeometry x="240" y="282" width="120" height="40" as="geometry" />
        </mxCell>
        <mxCell id="uvgIFms-rv46Gu-G6dfy-28" value="" style="ellipse;whiteSpace=wrap;html=1;aspect=fixed;strokeWidth=3;" vertex="1" parent="1">
          <mxGeometry x="280" y="523" width="40" height="40" as="geometry" />
        </mxCell>
        <mxCell id="uvgIFms-rv46Gu-G6dfy-77" style="edgeStyle=orthogonalEdgeStyle;rounded=0;orthogonalLoop=1;jettySize=auto;html=1;exitX=0.5;exitY=1;exitDx=0;exitDy=0;entryX=0.5;entryY=0;entryDx=0;entryDy=0;" edge="1" parent="1" source="uvgIFms-rv46Gu-G6dfy-74" target="uvgIFms-rv46Gu-G6dfy-76">
          <mxGeometry relative="1" as="geometry" />
        </mxCell>
        <mxCell id="uvgIFms-rv46Gu-G6dfy-74" value="Compute the product of the odd digits of n" style="rounded=1;whiteSpace=wrap;html=1;" vertex="1" parent="1">
          <mxGeometry x="240" y="362" width="120" height="40" as="geometry" />
        </mxCell>
        <mxCell id="uvgIFms-rv46Gu-G6dfy-78" style="edgeStyle=orthogonalEdgeStyle;rounded=0;orthogonalLoop=1;jettySize=auto;html=1;exitX=0.5;exitY=1;exitDx=0;exitDy=0;entryX=0.5;entryY=0;entryDx=0;entryDy=0;" edge="1" parent="1" source="uvgIFms-rv46Gu-G6dfy-76" target="uvgIFms-rv46Gu-G6dfy-28">
          <mxGeometry relative="1" as="geometry" />
        </mxCell>
        <mxCell id="uvgIFms-rv46Gu-G6dfy-76" value="Return the product or 0 if no odd digits are present." style="rounded=1;whiteSpace=wrap;html=1;fontSize=11;" vertex="1" parent="1">
          <mxGeometry x="240" y="442" width="120" height="40" as="geometry" />
        </mxCell>
      </root>
    </mxGraphModel>
  </diagram>
</mxfile>